{
  "accessors": [
    {
      "bufferView": 2,
      "componentType": 5126,
      "count": 905,
      "max": [
        17.661399841308594,
        50.77459716796875,
        73.45709991455078
      ],
      "min": [
        -30.404001235961914,
        38.66630172729492,
        -57.97390365600586
      ],
      "type": "VEC3"
    },
    {
      "bufferView": 2,
      "byteOffset": 10860,
      "componentType": 5126,
      "count": 905,
      "max": [
        0.9988464713096619,
        0.9995543360710144,
        1.0
      ],
      "min": [
        -0.9995045065879822,
        -0.9993388652801514,
        -0.9997122287750244
      ],
      "type": "VEC3"
    },
    {
      "bufferView": 1,
      "componentType": 5126,
      "count": 905,
      "max": [
        0.9980469942092896,
        0.976688027381897
      ],
      "min": [
        0.0019529999699443579,
        0.0019529999699443579
      ],
      "type": "VEC2"
    },
    {
      "bufferView": 0,
      "componentType": 5125,
      "count": 3990,
      "type": "SCALAR"
    },
    {
      "bufferView": 2,
      "byteOffset": 21720,
      "componentType": 5126,
      "count": 646,
      "max": [
        42.7672004699707,
        43.962196350097656,
        -40.93579864501953
      ],
      "min": [
        -55.6493034362793,
        37.1150016784668,
        -45.648101806640625
      ],
      "type": "VEC3"
    },
    {
      "bufferView": 2,
      "byteOffset": 29472,
      "componentType": 5126,
      "count": 646,
      "max": [
        0.9992398619651794,
        0.999758243560791,
        0.9997304677963257
      ],
      "min": [
        -0.9992404580116272,
        -0.9968545436859131,
        -0.9997855424880981
      ],
      "type": "VEC3"
    },
    {
      "bufferView": 1,
      "byteOffset": 7240,
      "componentType": 5126,
      "count": 646,
      "max": [
        0.9980469942092896,
        0.9951909780502319
      ],
      "min": [
        0.0019529999699443579,
        0.0019529999699443579
      ],
      "type": "VEC2"
    },
    {
      "bufferView": 0,
      "byteOffset": 15960,
      "componentType": 5125,
      "count": 3516,
      "type": "SCALAR"
    },
    {
      "bufferView": 2,
      "byteOffset": 37224,
      "componentType": 5126,
      "count": 624,
      "max": [
        -35.10089874267578,
        22.890399932861328,
        -55.11429977416992
      ],
      "min": [
        -44.436798095703125,
        -6.012423038482666,
        -84.08650207519531
      ],
      "type": "VEC3"
    },
    {
      "bufferView": 2,
      "byteOffset": 44712,
      "componentType": 5126,
      "count": 624,
      "max": [
        0.9999580979347229,
        0.996199905872345,
        0.9971281290054321
      ],
      "min": [
        -1.0,
        -1.0,
        -0.997776448726654
      ],
      "type": "VEC3"
    },
    {
      "bufferView": 1,
      "byteOffset": 12408,
      "componentType": 5126,
      "count": 624,
      "max": [
        0.7988680005073547,
        0.9999989867210388
      ],
      "min": [
        0.0,
        0.0
      ],
      "type": "VEC2"
    },
    {
      "bufferView": 0,
      "byteOffset": 30024,
      "componentType": 5125,
      "count": 3168,
      "type": "SCALAR"
    },
    {
      "bufferView": 2,
      "byteOffset": 52200,
      "componentType": 5126,
      "count": 624,
      "max": [
        31.77090072631836,
        22.890399932861328,
        -55.11429977416992
      ],
      "min": [
        22.43509864807129,
        -6.012423038482666,
        -84.08650207519531
      ],
      "type": "VEC3"
    },
    {
      "bufferView": 2,
      "byteOffset": 59688,
      "componentType": 5126,
      "count": 624,
      "max": [
        0.9999746084213257,
        0.996199905872345,
        1.0
      ],
      "min": [
        -0.9999580979347229,
        -1.0,
        -0.997776448726654
      ],
      "type": "VEC3"
    },
    {
      "bufferView": 1,
      "byteOffset": 17400,
      "componentType": 5126,
      "count": 624,
      "max": [
        0.9852150082588196,
        0.9999989867210388
      ],
      "min": [
        0.0,
        0.0
      ],
      "type": "VEC2"
    },
    {
      "bufferView": 0,
      "byteOffset": 42696,
      "componentType": 5125,
      "count": 3168,
      "type": "SCALAR"
    },
    {
      "bufferView": 2,
      "byteOffset": 67176,
      "componentType": 5126,
      "count": 623,
      "max": [
        31.77090072631836,
        24.738800048828125,
        62.99919891357422
      ],
      "min": [
        22.43509864807129,
        -4.164000034332275,
        34.02699661254883
      ],
      "type": "VEC3"
    },
    {
      "bufferView": 2,
      "byteOffset": 74652,
      "componentType": 5126,
      "count": 623,
      "max": [
        0.9999746084213257,
        0.9962000250816345,
        1.0
      ],
      "min": [
        -0.9999580979347229,
        -0.9969512224197388,
        -0.997776985168457
      ],
      "type": "VEC3"
    },
    {
      "bufferView": 1,
      "byteOffset": 22392,
      "componentType": 5126,
      "count": 623,
      "max": [
        0.9682109951972961,
        0.9999989867210388
      ],
      "min": [
        0.0,
        0.0
      ],
      "type": "VEC2"
    },
    {
      "bufferView": 0,
      "byteOffset": 55368,
      "componentType": 5125,
      "count": 3168,
      "type": "SCALAR"
    },
    {
      "bufferView": 2,
      "byteOffset": 82128,
      "componentType": 5126,
      "count": 624,
      "max": [
        -35.10089874267578,
        24.738800048828125,
        62.99919891357422
      ],
      "min": [
        -44.436798095703125,
        -4.164000034332275,
        34.02699661254883
      ],
      "type": "VEC3"
    },
    {
      "bufferView": 2,
      "byteOffset": 89616,
      "componentType": 5126,
      "count": 624,
      "max": [
        0.9999580979347229,
        0.9962000250816345,
        1.0
      ],
      "min": [
        -0.9999746084213257,
        -0.9969512224197388,
        -0.997776985168457
      ],
      "type": "VEC3"
    },
    {
      "bufferView": 1,
      "byteOffset": 27376,
      "componentType": 5126,
      "count": 624,
      "max": [
        0.7941840291023254,
        0.9999989867210388
      ],
      "min": [
        0.0,
        0.0
      ],
      "type": "VEC2"
    },
    {
      "bufferView": 0,
      "byteOffset": 68040,
      "componentType": 5125,
      "count": 3168,
      "type": "SCALAR"
    },
    {
      "bufferView": 2,
      "byteOffset": 97104,
      "componentType": 5126,
      "count": 1754,
      "max": [
        33.540401458740234,
        69.40390014648438,
        83.13829803466797
      ],
      "min": [
        -46.206302642822266,
        4.660912036895752,
        -108.35700225830078
      ],
      "type": "VEC3"
    },
    {
      "bufferView": 2,
      "byteOffset": 118152,
      "componentType": 5126,
      "count": 1754,
      "max": [
        0.9999556541442871,
        1.0,
        0.9998539090156555
      ],
      "min": [
        -0.9997504949569702,
        -1.0,
        -0.9985997676849365
      ],
      "type": "VEC3"
    },
    {
      "bufferView": 3,
      "componentType": 5126,
      "count": 1754,
      "max": [
        0.9999726414680481,
        0.9999356865882874,
        0.9999918341636658,
        1.0
      ],
      "min": [
        -0.9999501705169678,
        -0.99510657787323,
        -0.9994251728057861,
        -1.0
      ],
      "type": "VEC4"
    },
    {
      "bufferView": 1,
      "byteOffset": 32368,
      "componentType": 5126,
      "count": 1754,
      "max": [
        0.9980469942092896,
        0.9961979985237122
      ],
      "min": [
        0.0019529999699443579,
        0.0019529999699443579
      ],
      "type": "VEC2"
    },
    {
      "bufferView": 0,
      "byteOffset": 80712,
      "componentType": 5125,
      "count": 8751,
      "type": "SCALAR"
    }
  ],
  "asset": {
    "extras": {
      "author": "DeadLink (https://sketchfab.com/hell3879)",
      "license": "CC-BY-4.0 (http://creativecommons.org/licenses/by/4.0/)",
      "source": "https://sketchfab.com/3d-models/lada-2109-ua-ddc2917c8efc4b579aba4eaa819acc7b",
      "title": "Lada 2109 UA"
    },
    "generator": "Sketchfab-14.1.0",
    "version": "2.0"
  },
  "bufferViews": [
    {
      "buffer": 0,
      "byteLength": 115716,
      "name": "floatBufferViews",
      "target": 34963
    },
    {
      "buffer": 0,
      "byteLength": 46400,
      "byteOffset": 115716,
      "byteStride": 8,
      "name": "floatBufferViews",
      "target": 34962
    },
    {
      "buffer": 0,
      "byteLength": 139200,
      "byteOffset": 162116,
      "byteStride": 12,
      "name": "floatBufferViews",
      "target": 34962
    },
    {
      "buffer": 0,
      "byteLength": 28064,
      "byteOffset": 301316,
      "byteStride": 16,
      "name": "floatBufferViews",
      "target": 34962
    }
  ],
  "buffers": [
    {
      "byteLength": 329380,
      "uri": "scene.bin"
    }
  ],
  "images": [
    {
      "uri": "textures/lada_shell_lambert_baseColor.png"
    },
    {
      "uri": "textures/lada_shell_lambert_metallicRoughness.png"
    },
    {
      "uri": "textures/lada_shell_lambert_normal.png"
    },
    {
      "uri": "textures/lada_shell1_28_lambert_baseColor.png"
    },
    {
      "uri": "textures/lada_shell1_27_lambert_baseColor.png"
    },
    {
      "uri": "textures/lada_shell1_26_lambert_baseColor.png"
    },
    {
      "uri": "textures/lada_shell1_29_lambert_baseColor.png"
    },
    {
      "uri": "textures/Mirror1_lambert_baseColor.png"
    },
    {
      "uri": "textures/Mirror1_lambert_metallicRoughness.png"
    },
    {
      "uri": "textures/Cleaner1_lambert_baseColor.png"
    }
  ],
  "materials": [
    {
      "doubleSided": true,
      "name": "lada_shell_lambert",
      "normalTexture": {
        "index": 2
      },
      "pbrMetallicRoughness": {
        "baseColorTexture": {
          "index": 0
        },
        "metallicRoughnessTexture": {
          "index": 1
        }
      }
    },
    {
      "doubleSided": true,
      "name": "lada_shell1_28_lambert",
      "pbrMetallicRoughness": {
        "baseColorTexture": {
          "index": 3
        },
        "metallicFactor": 0.474,
        "roughnessFactor": 0.724
      }
    },
    {
      "doubleSided": true,
      "name": "lada_shell1_27_lambert",
      "pbrMetallicRoughness": {
        "baseColorTexture": {
          "index": 4
        },
        "metallicFactor": 0.474,
        "roughnessFactor": 0.724
      }
    },
    {
      "doubleSided": true,
      "name": "lada_shell1_26_lambert",
      "pbrMetallicRoughness": {
        "baseColorTexture": {
          "index": 5
        },
        "metallicFactor": 0.474,
        "roughnessFactor": 0.7238117297119381
      }
    },
    {
      "doubleSided": true,
      "name": "lada_shell1_29_lambert",
      "pbrMetallicRoughness": {
        "baseColorTexture": {
          "index": 6
        },
        "metallicFactor": 0.4739062061903426,
        "roughnessFactor": 0.724
      }
    },
    {
      "doubleSided": true,
      "name": "Mirror1_lambert",
      "pbrMetallicRoughness": {
        "baseColorTexture": {
          "index": 7
        },
        "metallicRoughnessTexture": {
          "index": 8
        }
      }
    },
    {
      "doubleSided": true,
      "name": "Cleaner1_lambert",
      "pbrMetallicRoughness": {
        "baseColorTexture": {
          "index": 9
        },
        "metallicFactor": 0.0,
        "roughnessFactor": 0.6
      }
    }
  ],
  "meshes": [
    {
      "name": "defaultMaterial",
      "primitives": [
        {
          "attributes": {
            "NORMAL": 1,
            "POSITION": 0,
            "TEXCOORD_0": 2
          },
          "indices": 3,
          "material": 6,
          "mode": 4
        }
      ]
    },
    {
      "name": "defaultMaterial",
      "primitives": [
        {
          "attributes": {
            "NORMAL": 5,
            "POSITION": 4,
            "TEXCOORD_0": 6
          },
          "indices": 7,
          "material": 5,
          "mode": 4
        }
      ]
    },
    {
      "name": "defaultMaterial",
      "primitives": [
        {
          "attributes": {
            "NORMAL": 9,
            "POSITION": 8,
            "TEXCOORD_0": 10
          },
          "indices": 11,
          "material": 4,
          "mode": 4
        }
      ]
    },
    {
      "name": "defaultMaterial",
      "primitives": [
        {
          "attributes": {
            "NORMAL": 13,
            "POSITION": 12,
            "TEXCOORD_0": 14
          },
          "indices": 15,
          "material": 3,
          "mode": 4
        }
      ]
    },
    {
      "name": "defaultMaterial",
      "primitives": [
        {
          "attributes": {
            "NORMAL": 17,
            "POSITION": 16,
            "TEXCOORD_0": 18
          },
          "indices": 19,
          "material": 2,
          "mode": 4
        }
      ]
    },
    {
      "name": "defaultMaterial",
      "primitives": [
        {
          "attributes": {
            "NORMAL": 21,
            "POSITION": 20,
            "TEXCOORD_0": 22
          },
          "indices": 23,
          "material": 1,
          "mode": 4
        }
      ]
    },
    {
      "name": "defaultMaterial",
      "primitives": [
        {
          "attributes": {
            "NORMAL": 25,
            "POSITION": 24,
            "TANGENT": 26,
            "TEXCOORD_0": 27
          },
          "indices": 28,
          "material": 0,
          "mode": 4
        }
      ]
    }
  ],
  "nodes": [
    {
      "children": [
        1
      ],
      "matrix": [
        1.0,
        0.0,
        0.0,
        0.0,
        0.0,
        2.220446049250313e-16,
        -1.0,
        0.0,
        0.0,
        1.0,
        2.220446049250313e-16,
        0.0,
        0.0,
        0.0,
        0.0,
        1.0
      ],
      "name": "Sketchfab_model"
    },
    {
      "children": [
        2,
        4,
        6,
        8,
        10,
        12,
        14
      ],
      "matrix": [
        1.0,
        0.0,
        0.0,
        0.0,
        0.0,
        -4.371139006309477e-08,
        0.999999999999999,
        0.0,
        0.0,
        -0.999999999999999,
        -4.371139006309477e-08,
        0.0,
        0.0,
        0.0,
        0.0,
        1.0
      ],
      "name": "Collada visual scene group"
    },
    {
      "children": [
        3
      ],
      "name": "Cleaner1"
    },
    {
      "mesh": 0,
      "name": "defaultMaterial"
    },
    {
      "children": [
        5
      ],
      "name": "Mirror1"
    },
    {
      "mesh": 1,
      "name": "defaultMaterial"
    },
    {
      "children": [
        7
      ],
      "name": "lada_shell1_29"
    },
    {
      "mesh": 2,
      "name": "defaultMaterial"
    },
    {
      "children": [
        9
      ],
      "name": "lada_shell1_26"
    },
    {
      "mesh": 3,
      "name": "defaultMaterial"
    },
    {
      "children": [
        11
      ],
      "name": "lada_shell1_27"
    },
    {
      "mesh": 4,
      "name": "defaultMaterial"
    },
    {
      "children": [
        13
      ],
      "name": "lada_shell1_28"
    },
    {
      "mesh": 5,
      "name": "defaultMaterial"
    },
    {
      "children": [
        15
      ],
      "name": "lada_shell"
    },
    {
      "mesh": 6,
      "name": "defaultMaterial"
    }
  ],
  "samplers": [
    {
      "magFilter": 9729,
      "minFilter": 9987,
      "wrapS": 10497,
      "wrapT": 10497
    }
  ],
  "scene": 0,
  "scenes": [
    {
      "name": "Sketchfab_Scene",
      "nodes": [
        0
      ]
    }
  ],
  "textures": [
    {
      "sampler": 0,
      "source": 0
    },
    {
      "sampler": 0,
      "source": 1
    },
    {
      "sampler": 0,
      "source": 2
    },
    {
      "sampler": 0,
      "source": 3
    },
    {
      "sampler": 0,
      "source": 4
    },
    {
      "sampler": 0,
      "source": 5
    },
    {
      "sampler": 0,
      "source": 6
    },
    {
      "sampler": 0,
      "source": 7
    },
    {
      "sampler": 0,
      "source": 8
    },
    {
      "sampler": 0,
      "source": 9
    }
  ]
}
